<svg xmlns="http://www.w3.org/2000/svg" viewBox="0 0 100 125" x="0px" y="0px"><title>pix-humidity-one-quarter</title><g><path d="M59.34,30.93,50,16,40.66,30.93C35.93,38.48,28,52.41,28,60.83,28,73.6,37.87,84,50,84S72,73.6,72,60.83C72,52.41,64.07,38.48,59.34,30.93Zm-13.6,3.18L50,27.31l4.26,6.8C61.61,45.86,66,55.85,66,60.83A18.09,18.09,0,0,1,65.72,64H34.28A18.09,18.09,0,0,1,34,60.83C34,55.85,38.39,45.86,45.74,34.11ZM49.65,78h.7L50,78Z"/></g><text x="0" y="115" fill="#000000" font-size="5px" font-weight="bold" font-family="'Helvetica Neue', Helvetica, Arial-Unicode, Arial, Sans-serif">Created by Luis Rodrigues</text><text x="0" y="120" fill="#000000" font-size="5px" font-weight="bold" font-family="'Helvetica Neue', Helvetica, Arial-Unicode, Arial, Sans-serif">from the Noun Project</text></svg>