<svg xmlns="http://www.w3.org/2000/svg" xmlns:xlink="http://www.w3.org/1999/xlink" version="1.1" x="0px" y="0px" viewBox="0 0 100 125" enable-background="new 0 0 100 100" xml:space="preserve"><g><path d="M74.836,71.278c-4.883,0-8.855-3.972-8.855-8.855c0-0.794,0.644-1.438,1.438-1.438c0.794,0,1.438,0.644,1.438,1.438   c0,3.297,2.682,5.979,5.979,5.979c3.297,0,5.98-2.682,5.98-5.979s-2.682-5.98-5.98-5.98h-53.09c-0.794,0-1.438-0.644-1.438-1.438   s0.644-1.438,1.438-1.438h53.09c4.883,0,8.856,3.973,8.856,8.856S79.719,71.278,74.836,71.278z"/><path d="M91.525,51.909H3.539c-0.794,0-1.438-0.644-1.438-1.438s0.644-1.438,1.438-1.438h87.986c1.929,0,3.498-1.569,3.498-3.498   s-1.569-3.498-3.498-3.498c-0.934,0-1.812,0.364-2.474,1.025c-0.562,0.562-1.472,0.562-2.034,0c-0.561-0.562-0.561-1.473,0-2.033   c1.205-1.205,2.806-1.868,4.507-1.868c3.515,0,6.374,2.86,6.374,6.374S95.039,51.909,91.525,51.909z"/><path d="M63.837,47.374H8.384c-0.794,0-1.438-0.644-1.438-1.438s0.644-1.438,1.438-1.438h55.453c3.557,0,6.451-2.894,6.451-6.45   c0-3.557-2.894-6.451-6.451-6.451c-3.557,0-6.45,2.894-6.45,6.451c0,0.794-0.644,1.438-1.438,1.438s-1.438-0.644-1.438-1.438   c0-5.143,4.183-9.326,9.326-9.326s9.326,4.183,9.326,9.326C73.164,43.191,68.98,47.374,63.837,47.374z"/></g><text x="0" y="115" fill="#000000" font-size="5px" font-weight="bold" font-family="'Helvetica Neue', Helvetica, Arial-Unicode, Arial, Sans-serif">Created by Gerardo Martín Martínez</text><text x="0" y="120" fill="#000000" font-size="5px" font-weight="bold" font-family="'Helvetica Neue', Helvetica, Arial-Unicode, Arial, Sans-serif">from the Noun Project</text></svg>